# xmcd CD database file
#
# Track frame offsets:
#	150
#	14133
#	36223
#	55176
#	72222
#	94741
#	108233
#	122696
#	138165
#	153743
#	169804
#	189256
#
# Disc length: 3122 seconds
#
# Revision: 0
# Processed by: cddbd v1.5.2PL0 Copyright (c) Steve Scherf et al.
# Submitted via: CDex 1.70beta2
#
DISCID=a00c300c
DTITLE=Pearce, Cindy - Cdn. - Simply Me
DYEAR=1900
DGENRE=Country
TTITLE0=Let the Mystery Be
TTITLE1=Acres of Corn
TTITLE2=Old Fashioned Dance
TTITLE3=Don't Be Afraid of the Dark
TTITLE4=City of New Orleans
TTITLE5=The Foz
TTITLE6=Don't Think Twice, It's Alright
TTITLE7=Bring On the Rain
TTITLE8=Souvenirs
TTITLE9=Amazing Grace
TTITLE10=Fence Posts and Stones
TTITLE11=Hallelujah
EXTD=
EXTT0=
EXTT1=
EXTT2=
EXTT3=
EXTT4=
EXTT5=
EXTT6=
EXTT7=
EXTT8=
EXTT9=
EXTT10=
EXTT11=
PLAYORDER=
